<svg width="23" height="23" viewBox="0 0 23 23" fill="none" xmlns="http://www.w3.org/2000/svg">
<path d="M5.625 17.125H16.875V14.875H5.625V17.125ZM11.25 13.75L15.75 9.25L14.175 7.675L12.375 9.41875V4.75H10.125V9.41875L8.325 7.675L6.75 9.25L11.25 13.75ZM11.25 22.75C9.69375 22.75 8.23125 22.4545 6.8625 21.8635C5.49375 21.2733 4.30313 20.4719 3.29063 19.4594C2.27813 18.4469 1.47675 17.2563 0.8865 15.8875C0.2955 14.5187 0 13.0562 0 11.5C0 9.94375 0.2955 8.48125 0.8865 7.1125C1.47675 5.74375 2.27813 4.55313 3.29063 3.54063C4.30313 2.52813 5.49375 1.72637 6.8625 1.13537C8.23125 0.545125 9.69375 0.25 11.25 0.25C12.8062 0.25 14.2687 0.545125 15.6375 1.13537C17.0063 1.72637 18.1969 2.52813 19.2094 3.54063C20.2219 4.55313 21.0233 5.74375 21.6135 7.1125C22.2045 8.48125 22.5 9.94375 22.5 11.5C22.5 13.0562 22.2045 14.5187 21.6135 15.8875C21.0233 17.2563 20.2219 18.4469 19.2094 19.4594C18.1969 20.4719 17.0063 21.2733 15.6375 21.8635C14.2687 22.4545 12.8062 22.75 11.25 22.75ZM11.25 20.5C13.7625 20.5 15.8906 19.6281 17.6344 17.8844C19.3781 16.1406 20.25 14.0125 20.25 11.5C20.25 8.9875 19.3781 6.85937 17.6344 5.11562C15.8906 3.37187 13.7625 2.5 11.25 2.5C8.7375 2.5 6.60937 3.37187 4.86562 5.11562C3.12187 6.85937 2.25 8.9875 2.25 11.5C2.25 14.0125 3.12187 16.1406 4.86562 17.8844C6.60937 19.6281 8.7375 20.5 11.25 20.5Z" fill="#F95700"/>
</svg>
