<svg width="26" height="18" viewBox="0 0 26 18" fill="none" xmlns="http://www.w3.org/2000/svg">
<path d="M12.8333 0.25C7 0.25 2.01833 3.87833 0 9C2.01833 14.1217 7 17.75 12.8333 17.75C18.6667 17.75 23.6483 14.1217 25.6667 9C23.6483 3.87833 18.6667 0.25 12.8333 0.25ZM12.8333 14.8333C9.61333 14.8333 7 12.22 7 9C7 5.78 9.61333 3.16667 12.8333 3.16667C16.0533 3.16667 18.6667 5.78 18.6667 9C18.6667 12.22 16.0533 14.8333 12.8333 14.8333ZM12.8333 5.5C10.8967 5.5 9.33333 7.06333 9.33333 9C9.33333 10.9367 10.8967 12.5 12.8333 12.5C14.77 12.5 16.3333 10.9367 16.3333 9C16.3333 7.06333 14.77 5.5 12.8333 5.5Z" fill="#F95700"/>
</svg>
