<svg width="40" height="38" viewBox="0 0 40 38" fill="none" xmlns="http://www.w3.org/2000/svg">
<path d="M14.618 17.0225C14.4265 17.005 14.1967 17.005 13.986 17.0225C9.42812 16.8825 5.80859 13.47 5.80859 9.27C5.80859 4.9825 9.60048 1.5 14.3116 1.5C19.0036 1.5 22.8146 4.9825 22.8146 9.27C22.7955 13.47 19.176 16.8825 14.618 17.0225Z" stroke="#0090C5" stroke-width="2.625" stroke-linecap="round" stroke-linejoin="round"/>
<path d="M28.5029 5C32.2181 5 35.2057 7.7475 35.2057 11.125C35.2057 14.4325 32.3331 17.1275 28.7518 17.25C28.5986 17.2325 28.4263 17.2325 28.2539 17.25" stroke="#0090C5" stroke-width="2.625" stroke-linecap="round" stroke-linejoin="round"/>
<path d="M5.0423 23.48C0.407774 26.315 0.407774 30.935 5.0423 33.7525C10.3088 36.9725 18.9459 36.9725 24.2124 33.7525C28.8469 30.9175 28.8469 26.2975 24.2124 23.48C18.965 20.2775 10.328 20.2775 5.0423 23.48Z" stroke="#0090C5" stroke-width="2.625" stroke-linecap="round" stroke-linejoin="round"/>
<path d="M32.1973 33C33.5761 32.7375 34.8784 32.23 35.9508 31.4775C38.9384 29.43 38.9384 26.0525 35.9508 24.005C34.8975 23.27 33.6144 22.78 32.2547 22.5" stroke="#0090C5" stroke-width="2.625" stroke-linecap="round" stroke-linejoin="round"/>
</svg>
