<svg idth="42" height="38" viewBox="0 0 93 84" fill="none" xmlns="http://www.w3.org/2000/svg">
<ellipse cx="46.9427" cy="42" rx="45.9623" ry="42" fill="#F4F5F7"/>
<path d="M51.3945 53.7482L54.1669 56.2815L59.7115 51.2148" stroke="#0090C5" stroke-width="2.5" stroke-linecap="round" stroke-linejoin="round"/>
<path d="M47.2357 40.1154C47.0533 40.0987 46.8345 40.0987 46.6338 40.1154C42.2929 39.982 38.8458 36.732 38.8458 32.732C38.8275 28.6487 42.4571 25.332 46.9256 25.332C51.3942 25.332 55.0238 28.6487 55.0238 32.732C55.0238 36.732 51.5584 39.982 47.2357 40.1154Z" stroke="#0090C5" stroke-width="2.5" stroke-linecap="round" stroke-linejoin="round"/>
<path d="M46.9247 58.3482C43.6052 58.3482 40.3039 57.5815 37.7869 56.0482C33.3731 53.3482 33.3731 48.9482 37.7869 46.2648C42.8027 43.1982 51.0284 43.1982 56.0442 46.2648" stroke="#0090C5" stroke-width="2.5" stroke-linecap="round" stroke-linejoin="round"/>
</svg>
