<svg width="32" height="34" viewBox="0 0 32 34" fill="none" xmlns="http://www.w3.org/2000/svg">
<rect opacity="0.5" y="16" width="32" height="18" rx="9" fill="#D8DBFA"/>
<path d="M21.5625 5.81651L16.3281 0.512344C15.875 0.0531771 15.125 0.0531771 14.6719 0.512344L9.4375 5.81651C8.98438 6.27568 8.98438 7.03568 9.4375 7.49484C9.89062 7.95401 10.6406 7.95401 11.0938 7.49484L14.3281 4.21734V21.1432C14.3281 21.7923 14.8594 22.3307 15.5 22.3307C16.1406 22.3307 16.6719 21.7923 16.6719 21.1432V4.21734L19.9062 7.49484C20.1406 7.73234 20.4375 7.84318 20.7344 7.84318C21.0313 7.84318 21.3281 7.73234 21.5625 7.49484C22.0313 7.03568 22.0313 6.29151 21.5625 5.81651Z" fill="white"/>
</svg>
