<svg width="31" height="31" viewBox="0 0 31 31" fill="none" xmlns="http://www.w3.org/2000/svg">
<path d="M17.4996 9.17656C17.4996 11.3845 16.6225 13.502 15.0613 15.0632C13.5 16.6245 11.3825 17.5016 9.17461 17.5016C6.96668 17.5016 4.84919 16.6245 3.28795 15.0632C1.7267 13.502 0.849609 11.3845 0.849609 9.17656C0.849609 6.96864 1.7267 4.85114 3.28795 3.2899C4.84919 1.72866 6.96668 0.851563 9.17461 0.851562C11.3825 0.851563 13.5 1.72866 15.0613 3.2899C16.6225 4.85114 17.4996 6.96864 17.4996 9.17656ZM10.0996 5.47656C10.0996 5.23124 10.0022 4.99596 9.82868 4.82249C9.65521 4.64902 9.41993 4.55156 9.17461 4.55156C8.92928 4.55156 8.69401 4.64902 8.52054 4.82249C8.34706 4.99596 8.24961 5.23124 8.24961 5.47656V8.25156H5.47461C5.22928 8.25156 4.99401 8.34902 4.82054 8.52249C4.64706 8.69596 4.54961 8.93124 4.54961 9.17656C4.54961 9.42189 4.64706 9.65717 4.82054 9.83064C4.99401 10.0041 5.22928 10.1016 5.47461 10.1016H8.24961V12.8766C8.24961 13.1219 8.34706 13.3572 8.52054 13.5306C8.69401 13.7041 8.92928 13.8016 9.17461 13.8016C9.41993 13.8016 9.65521 13.7041 9.82868 13.5306C10.0022 13.3572 10.0996 13.1219 10.0996 12.8766V10.1016H12.8746C13.1199 10.1016 13.3552 10.0041 13.5287 9.83064C13.7022 9.65717 13.7996 9.42189 13.7996 9.17656C13.7996 8.93124 13.7022 8.69596 13.5287 8.52249C13.3552 8.34902 13.1199 8.25156 12.8746 8.25156H10.0996V5.47656ZM9.17461 19.3516C10.9162 19.3519 12.6288 18.9052 14.1484 18.0541C15.6679 17.2031 16.9436 15.9763 17.8533 14.4911C18.763 13.0059 19.2762 11.3121 19.3438 9.57175C19.4115 7.83143 19.0313 6.10288 18.2396 4.55156H24.8996C26.3716 4.55156 27.7832 5.13629 28.8241 6.17712C29.8649 7.21795 30.4496 8.62961 30.4496 10.1016V24.9016C30.4496 26.1041 30.0685 27.2141 29.4192 28.1243L19.4477 18.3045C18.9285 17.7932 18.2291 17.5067 17.5005 17.5067C16.7719 17.5067 16.0725 17.7932 15.5534 18.3045L5.58191 28.1243C4.90915 27.1845 4.5481 26.0573 4.54961 24.9016V18.2416C5.93711 18.952 7.50961 19.3516 9.17461 19.3516ZM22.1246 13.8016C22.3699 13.8016 22.6052 13.7041 22.7787 13.5306C22.9522 13.3572 23.0496 13.1219 23.0496 12.8766C23.0496 12.6312 22.9522 12.396 22.7787 12.2225C22.6052 12.049 22.3699 11.9516 22.1246 11.9516C21.8793 11.9516 21.644 12.049 21.4705 12.2225C21.2971 12.396 21.1996 12.6312 21.1996 12.8766C21.1996 13.1219 21.2971 13.3572 21.4705 13.5306C21.644 13.7041 21.8793 13.8016 22.1246 13.8016ZM22.1246 15.6516C22.8606 15.6516 23.5664 15.3592 24.0868 14.8388C24.6072 14.3184 24.8996 13.6125 24.8996 12.8766C24.8996 12.1406 24.6072 11.4348 24.0868 10.9143C23.5664 10.3939 22.8606 10.1016 22.1246 10.1016C21.3886 10.1016 20.6828 10.3939 20.1624 10.9143C19.642 11.4348 19.3496 12.1406 19.3496 12.8766C19.3496 13.6125 19.642 14.3184 20.1624 14.8388C20.6828 15.3592 21.3886 15.6516 22.1246 15.6516ZM6.88986 29.4304C7.79636 30.0742 8.90451 30.4516 10.0996 30.4516H24.8996C26.0947 30.4516 27.2029 30.0742 28.1094 29.4304L18.149 19.6254C17.9759 19.4548 17.7426 19.3591 17.4996 19.3591C17.2566 19.3591 17.0233 19.4548 16.8503 19.6254L6.88986 29.4304Z" fill="#0090C5"/>
</svg>
