<svg width="30" height="31" viewBox="0 0 30 31" fill="none" xmlns="http://www.w3.org/2000/svg">
<path d="M27 15.5C27 18.7887 25.7357 21.9427 23.4853 24.2681C21.2348 26.5936 18.1826 27.9 15 27.9C11.8174 27.9 8.76515 26.5936 6.51472 24.2681C4.26428 21.9427 3 18.7887 3 15.5C3 12.2114 4.26428 9.05738 6.51472 6.73193C8.76515 4.40648 11.8174 3.10006 15 3.10006C16.14 3.10006 17.25 3.27056 18.3 3.58056L20.655 1.14707C18.8614 0.383795 16.9397 -0.00599301 15 6.96496e-05C13.0302 6.96496e-05 11.0796 0.400988 9.25975 1.17993C7.43986 1.95888 5.78628 3.1006 4.3934 4.5399C1.58035 7.44671 0 11.3892 0 15.5C0 19.6109 1.58035 23.5534 4.3934 26.4602C5.78628 27.8995 7.43986 29.0412 9.25975 29.8201C11.0796 30.5991 13.0302 31 15 31C18.9782 31 22.7936 29.367 25.6066 26.4602C28.4196 23.5534 30 19.6109 30 15.5M8.865 12.524L6.75 14.725L13.5 21.7L28.5 6.20006L26.385 3.99906L13.5 17.3135L8.865 12.524Z" fill="#03CC0B"/>
</svg>
