<svg width="115" height="15" viewBox="0 0 115 20" fill="none" xmlns="http://www.w3.org/2000/svg">
<path d="M69 0L71.6552 7.58621H80L73.1724 12.4138L75.4483 20L69 15.1724L62.5517 20L64.8276 12.4138L58 7.58621H66.3448L69 0Z" fill="#FCD34D"/>
<path d="M104 0L106.655 7.58621H115L108.172 12.4138L110.448 20L104 15.1724L97.5517 20L99.8276 12.4138L93 7.58621H101.345L104 0Z" fill="#FCD34D"/>
<path d="M40 0L42.8966 7.58621H52L44.5517 12.4138L47.0345 20L40 15.1724L32.9655 20L35.4483 12.4138L28 7.58621H37.1034L40 0Z" fill="#FCD34D"/>
<path d="M11 0L13.6552 7.58621H22L15.1724 12.4138L17.4483 20L11 15.1724L4.55172 20L6.82759 12.4138L0 7.58621H8.34483L11 0Z" fill="#FCD34D"/>
</svg>
